# xmcd
#
# Track frame offsets: 
#        150
#        16411
#        41908
#        64160
#        81369
#        93158
#        109213
#        120252
#        136840
#        147004
#        176630
#        198107
#        208233
#
# Disc length: 3068 seconds
#
# Revision: 3
# Processed by: cddbd v1.5.2PL0 Copyright (c) Steve Scherf et al.
# Submitted via: ExactAudioCopyFreeDBPlugin 1.0
#
DISCID=b20bfa0d
DTITLE=The Duke Robillard Band - Ear Worms
DYEAR=2019
DGENRE=Modern Electric Blues
TTITLE0=The Duke Robillard Band with Dave Howard and Marty Ballou - Don'
TTITLE0=t Bother Trying To Steal Her Love
TTITLE1=The Duke Robillard Band with Klem Klimek, Doug James, Jeff 'Do
TTITLE1=c' Chanon and Baxter Hall - On This Side of Goodbye
TTITLE2=The Duke Robillard Band with Chris Cote and Marnie hall - Living
TTITLE2=with The Animals
TTITLE3=Careless Love
TTITLE4=The Duke Robillard Band with Julie Grant and Sunny Crownover - E
TTITLE4=veryday I Have To Cry Some
TTITLE5=The Duke Robillard Band with Mark Cutler - I Am A Lonesome Hob
TTITLE5=o
TTITLE6=The Duke Robillard Band with Sunny Crownover - Sweet Nothin's
TTITLE7=Soldier of Love
TTITLE8=The Duke Robillard Band with Klem Klimek - Dear Dad
TTITLE9=Yes We Can
TTITLE10=Yellow Moon
TTITLE11=Rawhide
TTITLE12=You Belong To Me
EXTD=
EXTT0=
EXTT1=
EXTT2=
EXTT3=
EXTT4=
EXTT5=
EXTT6=
EXTT7=
EXTT8=
EXTT9=
EXTT10=
EXTT11=
EXTT12=
PLAYORDER=
